<svg width="962" height="640" xmlns="http://www.w3.org/2000/svg" xmlns:xlink="http://www.w3.org/1999/xlink" overflow="hidden"><defs><clipPath id="clip0"><rect x="103" y="55" width="962" height="640"/></clipPath><clipPath id="clip1"><rect x="104" y="55" width="937" height="639"/></clipPath><clipPath id="clip2"><rect x="104" y="55" width="937" height="639"/></clipPath><clipPath id="clip3"><rect x="200" y="112" width="699" height="496"/></clipPath><clipPath id="clip4"><rect x="200" y="112" width="699" height="496"/></clipPath><clipPath id="clip5"><rect x="200" y="112" width="699" height="496"/></clipPath><clipPath id="clip6"><rect x="200" y="112" width="699" height="496"/></clipPath><clipPath id="clip7"><rect x="200" y="112" width="699" height="496"/></clipPath><clipPath id="clip8"><rect x="200" y="112" width="699" height="496"/></clipPath><clipPath id="clip9"><rect x="200" y="112" width="699" height="496"/></clipPath><clipPath id="clip10"><rect x="200" y="112" width="699" height="496"/></clipPath><clipPath id="clip11"><rect x="104" y="55" width="937" height="639"/></clipPath><clipPath id="clip12"><rect x="104" y="55" width="937" height="639"/></clipPath><clipPath id="clip13"><rect x="104" y="55" width="937" height="639"/></clipPath><clipPath id="clip14"><rect x="104" y="55" width="937" height="639"/></clipPath><clipPath id="clip15"><rect x="104" y="55" width="937" height="639"/></clipPath><clipPath id="clip16"><rect x="104" y="55" width="937" height="639"/></clipPath><clipPath id="clip17"><rect x="104" y="55" width="937" height="639"/></clipPath><clipPath id="clip18"><rect x="104" y="55" width="937" height="639"/></clipPath><clipPath id="clip19"><rect x="104" y="55" width="937" height="639"/></clipPath><clipPath id="clip20"><rect x="104" y="55" width="937" height="639"/></clipPath><clipPath id="clip21"><rect x="104" y="55" width="937" height="639"/></clipPath><clipPath id="clip22"><rect x="104" y="55" width="938" height="640"/></clipPath><clipPath id="clip23"><rect x="-673" y="61" width="1854" height="39"/></clipPath><clipPath id="clip24"><rect x="104" y="55" width="938" height="640"/></clipPath><clipPath id="clip25"><rect x="104" y="55" width="938" height="640"/></clipPath><clipPath id="clip26"><rect x="-673" y="61" width="1854" height="39"/></clipPath></defs><g clip-path="url(#clip0)" transform="translate(-103 -55)"><rect x="104" y="56" width="937" height="638" fill="#FFFFFF"/><g clip-path="url(#clip1)"><path d="M0 0 0.000104987 495" stroke="#323437" stroke-width="0.680315" stroke-linejoin="round" stroke-miterlimit="10" fill="none" fill-rule="evenodd" transform="matrix(1 0 0 -1 200.5 607.5)"/></g><g clip-path="url(#clip2)"><path d="M200.5 607.5 898.5 607.5" stroke="#323437" stroke-width="0.982677" stroke-linejoin="round" stroke-miterlimit="10" fill="none" fill-rule="evenodd"/></g><g clip-path="url(#clip3)"><path d="M200.5 146.5 223.5 151.5 246.5 169.5 269.5 198.5 293.5 216.5 316.5 216.5 339.5 216.5 363.5 240.5 386.5 234.5 409.5 256.5 432.5 240.5 456.5 223.5 479.5 230.5 502.5 220.5 525.5 224.5 549.5 226.5 572.5 218.5 595.5 227.5 618.5 239.5 642.5 277.5 665.5 265.5 688.5 290.5 711.5 273.5 735.5 294.5 758.5 335.5 781.5 368.5 805.5 407.5 828.5 424.5 851.5 436.5 874.5 450.5 898.5 469.5" stroke="#006853" stroke-width="2.98583" stroke-linecap="round" stroke-linejoin="round" stroke-miterlimit="10" fill="none"/></g><g clip-path="url(#clip4)"><path d="M200.5 396.5 223.5 399.5 246.5 397.5 269.5 395.5 293.5 393.5 316.5 394.5 339.5 386.5 363.5 385.5 386.5 386.5 409.5 384.5 432.5 387.5 456.5 388.5 479.5 384.5 502.5 386.5 525.5 384.5 549.5 383.5 572.5 383.5 595.5 381.5 618.5 391.5 642.5 399.5 665.5 402.5 688.5 406.5 711.5 407.5 735.5 410.5 758.5 407.5 781.5 404.5 805.5 400.5 828.5 400.5 851.5 402.5 874.5 406.5 898.5 444.5" stroke="#66A498" stroke-width="2.98583" stroke-linecap="round" stroke-linejoin="round" stroke-miterlimit="10" fill="none"/></g><g clip-path="url(#clip5)"><path d="M200 358 223 361 247 356 270 352 293 350 316 348 340 338 363 332 386 329 410 327 433 327 456 328 479 326 503 328 526 320 549 315 572 312 596 310 619 316 642 328 665 335 689 335 712 340 735 342 759 338 782 336 805 331 828 327 852 329 875 333 898 411" stroke="#A3C8C1" stroke-width="2" stroke-linecap="round" stroke-linejoin="round" stroke-miterlimit="10" stroke-dasharray="6 8" fill="none"/></g><g clip-path="url(#clip6)"><path d="M200.5 421.5 223.5 411.5 246.5 416.5 269.5 420.5 293.5 421.5 316.5 424.5 339.5 421.5 363.5 426.5 386.5 426.5 409.5 421.5 432.5 420.5 456.5 424.5 479.5 441.5 502.5 435.5 525.5 435.5 549.5 434.5 572.5 438.5 595.5 440.5 618.5 443.5 642.5 464.5 665.5 460.5 688.5 470.5 711.5 467.5 735.5 465.5 758.5 469.5 781.5 471.5 805.5 475.5 828.5 474.5 851.5 476.5 874.5 480.5 898.5 486.5" stroke="#F2CFB9" stroke-width="2.98583" stroke-linecap="round" stroke-linejoin="round" stroke-miterlimit="10" fill="none"/></g><g clip-path="url(#clip7)"><path d="M200.5 475.5 223.5 461.5 246.5 465.5 269.5 458.5 293.5 465.5 316.5 473.5 339.5 454.5 363.5 465.5 386.5 462.5 409.5 461.5 432.5 461.5 456.5 457.5 479.5 462.5 502.5 461.5 525.5 459.5 549.5 466.5 572.5 470.5 595.5 476.5 618.5 473.5 642.5 479.5 665.5 463.5 688.5 492.5 711.5 481.5 735.5 480.5 758.5 501.5 781.5 496.5 805.5 494.5 828.5 498.5 851.5 495.5 874.5 499.5 898.5 498.5" stroke="#DB7F44" stroke-width="2.98583" stroke-linecap="round" stroke-linejoin="round" stroke-miterlimit="10" fill="none"/></g><g clip-path="url(#clip8)"><path d="M200.5 497.5 223.5 499.5 246.5 501.5 269.5 503.5 293.5 502.5 316.5 502.5 339.5 502.5 363.5 505.5 386.5 506.5 409.5 506.5 432.5 510.5 456.5 515.5 479.5 517.5 502.5 516.5 525.5 517.5 549.5 518.5 572.5 521.5 595.5 523.5 618.5 526.5 642.5 527.5 665.5 527.5 688.5 527.5 711.5 528.5 735.5 528.5 758.5 526.5 781.5 526.5 805.5 526.5 828.5 526.5 851.5 525.5 874.5 524.5 898.5 528.5" stroke="#C99212" stroke-width="2.98583" stroke-linecap="round" stroke-linejoin="round" stroke-miterlimit="10" fill="none"/></g><g clip-path="url(#clip9)"><path d="M200.5 500.5 223.5 499.5 246.5 499.5 269.5 498.5 293.5 498.5 316.5 496.5 339.5 496.5 363.5 496.5 386.5 498.5 409.5 503.5 432.5 507.5 456.5 510.5 479.5 512.5 502.5 518.5 525.5 525.5 549.5 529.5 572.5 534.5 595.5 539.5 618.5 547.5 642.5 553.5 665.5 561.5 688.5 564.5 711.5 566.5 735.5 571.5 758.5 575.5 781.5 576.5 805.5 577.5 828.5 576.5 851.5 576.5 874.5 576.5 898.5 579.5" stroke="#AEFFEF" stroke-width="2.98583" stroke-linecap="round" stroke-linejoin="round" stroke-miterlimit="10" fill="none"/></g><g clip-path="url(#clip10)"><path d="M200.5 486.5 223.5 488.5 246.5 496.5 269.5 504.5 293.5 501.5 316.5 501.5 339.5 498.5 363.5 497.5 386.5 506.5 409.5 536.5 432.5 542.5 456.5 546.5 479.5 554.5 502.5 554.5 525.5 554.5 549.5 554.5 572.5 559.5 595.5 557.5 618.5 560.5 642.5 573.5 665.5 571.5 688.5 575.5 711.5 575.5 735.5 571.5 758.5 573.5 781.5 573.5 805.5 577.5 828.5 576.5 851.5 578.5 874.5 578.5 898.5 579.5" stroke="#323437" stroke-width="2.98667" stroke-linecap="round" stroke-linejoin="round" stroke-miterlimit="10" fill="none"/></g><g clip-path="url(#clip11)"><text font-family="Arial,Arial_MSFontService,sans-serif" font-weight="400" font-size="19" transform="translate(173.71 615)">0</text></g><g clip-path="url(#clip12)"><text font-family="Arial,Arial_MSFontService,sans-serif" font-weight="400" font-size="19" transform="translate(163.344 532)">50</text></g><g clip-path="url(#clip13)"><text font-family="Arial,Arial_MSFontService,sans-serif" font-weight="400" font-size="19" transform="translate(152.977 450)">100</text></g><g clip-path="url(#clip14)"><text font-family="Arial,Arial_MSFontService,sans-serif" font-weight="400" font-size="19" transform="translate(152.977 367)">150</text></g><g clip-path="url(#clip15)"><text font-family="Arial,Arial_MSFontService,sans-serif" font-weight="400" font-size="19" transform="translate(152.977 285)">200</text></g><g clip-path="url(#clip16)"><text font-family="Arial,Arial_MSFontService,sans-serif" font-weight="400" font-size="19" transform="translate(152.977 202)">250</text></g><g clip-path="url(#clip17)"><text font-family="Arial,Arial_MSFontService,sans-serif" font-weight="400" font-size="19" transform="translate(152.977 120)">300</text></g><g clip-path="url(#clip18)"><text font-family="Arial,Arial_MSFontService,sans-serif" font-weight="400" font-size="19" transform="translate(179.403 637)">1990</text></g><g clip-path="url(#clip19)"><text font-family="Arial,Arial_MSFontService,sans-serif" font-weight="400" font-size="19" transform="translate(412.068 637)">2000</text></g><g clip-path="url(#clip20)"><text font-family="Arial,Arial_MSFontService,sans-serif" font-weight="400" font-size="19" transform="translate(644.732 637)">2010</text></g><g clip-path="url(#clip21)"><text font-family="Arial,Arial_MSFontService,sans-serif" font-weight="400" font-size="19" transform="translate(877.396 637)">2020</text></g><g clip-path="url(#clip22)"><g clip-path="url(#clip23)"><text font-family="Arial,Arial_MSFontService,sans-serif" font-weight="400" font-size="19" transform="translate(121.603 84)">Million tonnes of CO</text></g></g><g clip-path="url(#clip24)"><text font-family="Arial,Arial_MSFontService,sans-serif" font-weight="400" transform="translate(289.27 88)">2</text></g><g clip-path="url(#clip25)"><g clip-path="url(#clip26)"><text font-family="Arial,Arial_MSFontService,sans-serif" font-weight="400" font-size="19" transform="translate(301.436 84)">equivalent</text></g></g><text fill="#006853" font-family="Arial,Arial_MSFontService,sans-serif" font-weight="400" font-size="19" transform="translate(908.619 470)">Energy<tspan fill="#F2CFB9" x="0.55896" y="18">Business</tspan><tspan fill="#E49F73" x="0.421143" y="38">Residential</tspan><tspan fill="#C99212" x="0.146057" y="66">Agriculture*</tspan><tspan fill="#0099A9" x="0.55896" y="94">Waste </tspan><tspan fill="#323437" x="0.421021" y="118">Other**</tspan><tspan fill="#323437" font-size="13" x="-253.374" y="196">* LULUCF </tspan><tspan fill="#323437" font-size="13" x="-189.041" y="196">–</tspan><tspan fill="#323437" font-size="13" x="-178.041" y="196">Land Use, Land Use Change and Forestry</tspan><tspan fill="#323437" font-size="13" x="-253.374" y="212">** Includes emissions from Public and Industrial Processes</tspan><tspan fill="#A3C8C1" x="3.7511" y="-123">Transport </tspan><tspan fill="#A3C8C1" x="3.7511" y="-100">(including </tspan><tspan fill="#A3C8C1" x="3.7511" y="-78">international)</tspan></text></g></svg>